<?xml version="1.0" ?><!DOCTYPE svg  PUBLIC '-//W3C//DTD SVG 1.1//EN'  'http://www.w3.org/Graphics/SVG/1.1/DTD/svg11.dtd'><svg enable-background="new 0 0 32 32" height="32px" version="1.1" viewBox="0 0 32 32" width="32px" xml:space="preserve" xmlns="http://www.w3.org/2000/svg" xmlns:xlink="http://www.w3.org/1999/xlink"><g id="Angry_x2C__evil_x2C__hatred_x2C__emoji"><g><path d="M16,30C8.28,30,2,23.72,2,16S8.28,2,16,2s14,6.28,14,14S23.72,30,16,30z M16,3C8.832,3,3,8.832,3,16    s5.832,13,13,13s13-5.832,13-13S23.168,3,16,3z" fill="#263238"/><g><path d="M18,13c-0.161,0-0.319-0.078-0.416-0.223c-0.153-0.229-0.091-0.54,0.139-0.693l4.5-3     c0.228-0.152,0.538-0.092,0.693,0.139c0.153,0.229,0.091,0.54-0.139,0.693l-4.5,3C18.192,12.973,18.096,13,18,13z" fill="#263238"/><g><g><path d="M21,17c-1.654,0-3-1.346-3-3c0-0.216,0.138-0.407,0.343-0.475l4.505-1.493       c0.203-0.068,0.429,0.003,0.558,0.176C23.795,12.729,24,13.349,24,14C24,15.654,22.654,17,21,17z M19.031,14.351       C19.197,15.287,20.017,16,21,16c1.103,0,2-0.897,2-2c0-0.315-0.072-0.619-0.211-0.895L19.031,14.351z" fill="#263238"/></g><circle cx="21" cy="14" fill="#263238" r="1"/></g></g><g><path d="M14,13c-0.096,0-0.192-0.027-0.277-0.084l-4.5-3C8.993,9.763,8.931,9.452,9.084,9.223     s0.466-0.29,0.693-0.139l4.5,3c0.229,0.153,0.292,0.464,0.139,0.693C14.319,12.922,14.161,13,14,13z" fill="#263238"/><g><g><path d="M11,17c-1.654,0-3-1.346-3-3c0-0.651,0.205-1.271,0.595-1.792c0.129-0.173,0.356-0.243,0.558-0.176       l4.505,1.493C13.862,13.593,14,13.784,14,14C14,15.654,12.654,17,11,17z M9.211,13.105C9.072,13.381,9,13.685,9,14       c0,1.103,0.897,2,2,2c0.983,0,1.803-0.713,1.969-1.649L9.211,13.105z" fill="#263238"/></g><circle cx="11" cy="14" fill="#263238" r="1"/></g></g></g><g><g><path d="M20.5,26h-9C9.57,26,8,24.43,8,22.5S9.57,19,11.5,19h9c1.93,0,3.5,1.57,3.5,3.5S22.43,26,20.5,26z      M11.5,20C10.121,20,9,21.121,9,22.5s1.121,2.5,2.5,2.5h9c1.379,0,2.5-1.121,2.5-2.5S21.879,20,20.5,20H11.5z" fill="#263238"/></g><g><path d="M20.5,26h-9c-0.382,0-0.764-0.069-1.167-0.212C10.134,25.717,10,25.528,10,25.316V24.5     c0-1.379,1.121-2.5,2.5-2.5h7c1.379,0,2.5,1.121,2.5,2.5v0.816c0,0.212-0.134,0.4-0.333,0.472C21.264,25.931,20.882,26,20.5,26z      M11,24.942C11.172,24.981,11.337,25,11.5,25h9c0.163,0,0.328-0.019,0.5-0.058V24.5c0-0.827-0.673-1.5-1.5-1.5h-7     c-0.827,0-1.5,0.673-1.5,1.5V24.942z" fill="#263238"/></g><g><path d="M19.5,23h-7c-1.379,0-2.5-1.121-2.5-2.5v-0.816c0-0.212,0.134-0.4,0.333-0.472     C10.736,19.069,11.118,19,11.5,19h9c0.382,0,0.764,0.069,1.167,0.212C21.866,19.283,22,19.472,22,19.684V20.5     C22,21.879,20.879,23,19.5,23z M11,20.058V20.5c0,0.827,0.673,1.5,1.5,1.5h7c0.827,0,1.5-0.673,1.5-1.5v-0.442     C20.828,20.019,20.663,20,20.5,20h-9C11.337,20,11.172,20.019,11,20.058z" fill="#263238"/></g></g></g></svg>