<?xml version="1.0" ?><!DOCTYPE svg  PUBLIC '-//W3C//DTD SVG 1.1//EN'  'http://www.w3.org/Graphics/SVG/1.1/DTD/svg11.dtd'><svg enable-background="new 0 0 32 32" height="32px" version="1.1" viewBox="0 0 32 32" width="32px" xml:space="preserve" xmlns="http://www.w3.org/2000/svg" xmlns:xlink="http://www.w3.org/1999/xlink"><g id="Emoji_x2C__smiley_x2C__smile_x2C__cute_x2C__naivety_x2C__naive"><path d="M16,30C8.28,30,2,23.72,2,16S8.28,2,16,2s14,6.28,14,14S23.72,30,16,30z M16,3C8.832,3,3,8.832,3,16   s5.832,13,13,13s13-5.832,13-13S23.168,3,16,3z" fill="#263238"/><g id="XMLID_204_"><g><path d="M11,17c-2.206,0-4-1.794-4-4s1.794-4,4-4s4,1.794,4,4S13.206,17,11,17z M11,10c-1.654,0-3,1.346-3,3     s1.346,3,3,3s3-1.346,3-3S12.654,10,11,10z" fill="#263238"/></g></g><g id="XMLID_161_"><g id="XMLID_195_"><g><path d="M21,17c-2.206,0-4-1.794-4-4s1.794-4,4-4s4,1.794,4,4S23.206,17,21,17z M21,10c-1.654,0-3,1.346-3,3      s1.346,3,3,3s3-1.346,3-3S22.654,10,21,10z" fill="#263238"/></g></g><g><path d="M11,11c-1.104,0-2,0.896-2,2s0.896,2,2,2s2-0.896,2-2S12.104,11,11,11z M10.5,13.25     c-0.414,0-0.75-0.336-0.75-0.75s0.336-0.75,0.75-0.75s0.75,0.336,0.75,0.75S10.914,13.25,10.5,13.25z M11.5,14     c-0.276,0-0.5-0.225-0.5-0.5c0-0.276,0.224-0.5,0.5-0.5s0.5,0.224,0.5,0.5C12,13.775,11.776,14,11.5,14z" fill="#263238"/><path d="M21,11c-1.104,0-2,0.896-2,2s0.896,2,2,2s2-0.896,2-2S22.104,11,21,11z M20.5,13.25     c-0.414,0-0.75-0.336-0.75-0.75s0.336-0.75,0.75-0.75s0.75,0.336,0.75,0.75S20.914,13.25,20.5,13.25z M21.5,14     c-0.276,0-0.5-0.225-0.5-0.5c0-0.276,0.224-0.5,0.5-0.5s0.5,0.224,0.5,0.5C22,13.775,21.776,14,21.5,14z" fill="#263238"/></g></g><path d="M23.501,7.999c-0.104,0-0.208-0.032-0.297-0.098C23.191,7.893,21.957,7,20.002,7   c-0.276,0-0.5-0.224-0.5-0.5s0.224-0.5,0.5-0.5c2.304,0,3.739,1.055,3.8,1.1c0.221,0.165,0.265,0.477,0.101,0.698   C23.805,7.93,23.653,7.999,23.501,7.999z" fill="#263238"/><path d="M8.501,7.999c-0.155,0-0.308-0.071-0.405-0.207c-0.161-0.223-0.112-0.534,0.11-0.696   C8.268,7.051,9.737,6,12,6c0.276,0,0.5,0.224,0.5,0.5S12.276,7,12,7c-1.923,0-3.194,0.896-3.207,0.905   C8.704,7.969,8.603,7.999,8.501,7.999z" fill="#263238"/><path d="M16,23c-2.206,0-4-1.794-4-4c0-0.276,0.224-0.5,0.5-0.5S13,18.724,13,19c0,1.654,1.346,3,3,3s3-1.346,3-3   c0-0.276,0.224-0.5,0.5-0.5S20,18.724,20,19C20,21.206,18.206,23,16,23z" fill="#263238"/></g></svg>