<?xml version="1.0" ?><!DOCTYPE svg  PUBLIC '-//W3C//DTD SVG 1.1//EN'  'http://www.w3.org/Graphics/SVG/1.1/DTD/svg11.dtd'><svg enable-background="new 0 0 32 32" height="32px" version="1.1" viewBox="0 0 32 32" width="32px" xml:space="preserve" xmlns="http://www.w3.org/2000/svg" xmlns:xlink="http://www.w3.org/1999/xlink"><g id="Emoji_x2C__kiss_x2C__smiley"><g><g><g><path d="M18.95,15.063c-0.03,0-0.06-0.003-0.09-0.008c-0.14-0.025-0.262-0.109-0.336-0.23      C18.182,14.268,18,13.636,18,13c0-1.93,1.57-3.5,3.5-3.5S25,11.07,25,13c0,0.423-0.082,0.848-0.243,1.262      c-0.052,0.132-0.157,0.236-0.29,0.286c-0.131,0.05-0.281,0.043-0.406-0.024c-1.61-0.838-3.422-0.639-4.804,0.436      C19.168,15.027,19.061,15.063,18.95,15.063z M21.5,10.5c-1.379,0-2.5,1.121-2.5,2.5c0,0.277,0.049,0.555,0.145,0.82      c1.443-0.894,3.213-1.076,4.823-0.438C23.989,13.255,24,13.127,24,13C24,11.621,22.879,10.5,21.5,10.5z" fill="#263238"/></g><circle cx="21.5" cy="12.5" fill="#263238" r="1"/></g><g><g><path d="M13.05,15.063c-0.11,0-0.218-0.036-0.307-0.104c-1.383-1.074-3.195-1.273-4.804-0.436      c-0.125,0.067-0.274,0.074-0.406,0.024c-0.133-0.05-0.238-0.154-0.29-0.286C7.082,13.848,7,13.423,7,13c0-1.93,1.57-3.5,3.5-3.5      S14,11.07,14,13c0,0.636-0.182,1.268-0.524,1.825c-0.074,0.121-0.196,0.205-0.336,0.23C13.109,15.061,13.08,15.063,13.05,15.063      z M10,13c1.011,0,1.986,0.282,2.855,0.82C12.951,13.555,13,13.277,13,13c0-1.379-1.121-2.5-2.5-2.5S8,11.621,8,13      c0,0.127,0.011,0.255,0.032,0.383C8.673,13.129,9.332,13,10,13z" fill="#263238"/></g><circle cx="10.5" cy="12.5" fill="#263238" r="1"/></g><path d="M16,30C8.28,30,2,23.72,2,16S8.28,2,16,2s14,6.28,14,14c0,1.586-0.264,3.145-0.784,4.631    c-0.092,0.261-0.373,0.399-0.637,0.307c-0.261-0.091-0.398-0.376-0.307-0.637C28.755,18.92,29,17.474,29,16    c0-7.168-5.832-13-13-13S3,8.832,3,16s5.832,13,13,13c1.488,0,2.946-0.249,4.333-0.74c0.26-0.093,0.545,0.044,0.639,0.305    c0.092,0.261-0.045,0.546-0.305,0.639C19.172,29.731,17.602,30,16,30z" fill="#263238"/><path d="M23.002,8.5c-0.055,0-0.109-0.009-0.164-0.027C22.824,8.468,21.456,8,20.002,8c-0.276,0-0.5-0.224-0.5-0.5    s0.224-0.5,0.5-0.5c1.628,0,3.103,0.506,3.164,0.527c0.261,0.091,0.398,0.376,0.309,0.637C23.402,8.37,23.209,8.5,23.002,8.5z" fill="#263238"/><path d="M9,8.5c-0.208,0-0.402-0.131-0.474-0.339C8.438,7.899,8.577,7.615,8.839,7.526C8.902,7.505,10.404,7,12,7    c0.276,0,0.5,0.224,0.5,0.5S12.276,8,12,8c-1.426,0-2.825,0.469-2.839,0.474C9.107,8.491,9.054,8.5,9,8.5z" fill="#263238"/></g><path d="M16.5,26c-0.276,0-0.5-0.224-0.5-0.5c0-0.827,0.673-1.5,1.5-1.5H18c0.552,0,1-0.448,1-1s-0.448-1-1-1h-1   c-0.276,0-0.5-0.224-0.5-0.5S16.724,21,17,21h1c1.103,0,2,0.897,2,2s-0.897,2-2,2h-0.5c-0.275,0-0.5,0.225-0.5,0.5   C17,25.776,16.776,26,16.5,26z" fill="#263238"/><path d="M18,22h-1c-0.276,0-0.5-0.224-0.5-0.5S16.724,21,17,21h1c0.552,0,1-0.448,1-1s-0.448-1-1-1h-0.5   c-0.827,0-1.5-0.673-1.5-1.5c0-0.276,0.224-0.5,0.5-0.5s0.5,0.224,0.5,0.5c0,0.275,0.225,0.5,0.5,0.5H18c1.103,0,2,0.897,2,2   S19.103,22,18,22z" fill="#263238"/><g><path d="M26,30.877c-0.081,0-0.162-0.02-0.235-0.059C25.57,30.714,21,28.236,21,25.086    c0-1.634,1.329-2.963,2.962-2.963c0.767,0,1.493,0.296,2.038,0.813c0.545-0.517,1.271-0.813,2.037-0.813    c1.634,0,2.963,1.329,2.963,2.963c0,3.15-4.57,5.628-4.765,5.732C26.162,30.857,26.081,30.877,26,30.877z M23.962,23.123    c-1.082,0-1.962,0.881-1.962,1.963c0,1.991,2.691,3.962,3.997,4.717C26.885,29.279,30,27.285,30,25.086    c0-1.082-0.881-1.963-1.963-1.963c-0.65,0-1.258,0.322-1.623,0.861c-0.188,0.273-0.641,0.273-0.828,0    C25.221,23.445,24.613,23.123,23.962,23.123z" fill="#263238"/></g></g></svg>