<?xml version="1.0" ?><!DOCTYPE svg  PUBLIC '-//W3C//DTD SVG 1.1//EN'  'http://www.w3.org/Graphics/SVG/1.1/DTD/svg11.dtd'><svg enable-background="new 0 0 32 32" height="32px" version="1.1" viewBox="0 0 32 32" width="32px" xml:space="preserve" xmlns="http://www.w3.org/2000/svg" xmlns:xlink="http://www.w3.org/1999/xlink"><g id="Laugh_x2C__lol_x2C__smiley_x2C__laughter_1_"><path d="M16,30C8.28,30,2,23.72,2,16S8.28,2,16,2s14,6.28,14,14S23.72,30,16,30z M16,3C8.832,3,3,8.832,3,16   s5.832,13,13,13s13-5.832,13-13S23.168,3,16,3z" fill="#263238"/><path d="M23.998,12c-0.046,0-0.094-0.007-0.141-0.021c-0.019-0.005-1.938-0.556-5.898-0.882   c-0.191-0.016-0.357-0.14-0.426-0.318c-0.069-0.18-0.029-0.383,0.103-0.522c1.734-1.841,5.097-2.706,5.239-2.741   c0.273-0.07,0.54,0.094,0.607,0.362c0.067,0.268-0.095,0.539-0.362,0.606c-0.027,0.007-2.267,0.584-3.895,1.726   c3.27,0.336,4.841,0.789,4.913,0.811c0.265,0.077,0.416,0.355,0.338,0.62C24.413,11.858,24.214,12,23.998,12z" fill="#263238"/><path d="M8,12c-0.216,0-0.416-0.142-0.479-0.359c-0.078-0.265,0.074-0.543,0.338-0.62   c0.072-0.021,1.643-0.475,4.913-0.811c-1.628-1.142-3.868-1.719-3.895-1.726C8.61,8.417,8.448,8.146,8.515,7.878   C8.583,7.61,8.85,7.445,9.123,7.516c0.142,0.035,3.505,0.9,5.239,2.741c0.132,0.14,0.172,0.343,0.103,0.522   c-0.069,0.179-0.234,0.303-0.426,0.318c-3.959,0.326-5.879,0.877-5.898,0.882C8.094,11.993,8.046,12,8,12z" fill="#263238"/><g><path d="M16,24c-5.607,0-10-3.953-10-9c0-0.204,0.124-0.387,0.313-0.464C6.468,14.474,10.178,13,16,13    s9.532,1.474,9.688,1.536C25.876,14.613,26,14.796,26,15C26,20.047,21.607,24,16,24z M7.007,15.348C7.199,19.734,11,23,16,23    s8.801-3.266,8.993-7.652C23.984,15.001,20.666,14,16,14S8.016,15.001,7.007,15.348z" fill="#263238"/><g><path d="M16,24c-2.753,0-5.29-0.929-7.144-2.615C8.75,21.288,8.69,21.15,8.692,21.007s0.066-0.279,0.175-0.373     C10.859,18.936,13.392,18,16,18s5.141,0.936,7.132,2.634c0.109,0.094,0.173,0.229,0.175,0.373s-0.057,0.281-0.164,0.378     C21.29,23.071,18.753,24,16,24z M9.978,21.024C11.599,22.303,13.714,23,16,23s4.401-0.697,6.022-1.976     C20.29,19.715,18.173,19,16,19S11.71,19.715,9.978,21.024z" fill="#263238"/></g></g></g></svg>