<?xml version="1.0" ?><!DOCTYPE svg  PUBLIC '-//W3C//DTD SVG 1.1//EN'  'http://www.w3.org/Graphics/SVG/1.1/DTD/svg11.dtd'><svg enable-background="new 0 0 32 32" height="32px" version="1.1" viewBox="0 0 32 32" width="32px" xml:space="preserve" xmlns="http://www.w3.org/2000/svg" xmlns:xlink="http://www.w3.org/1999/xlink"><g id="rss"><path d="M20.837,31.003h-5.52c-0.276,0-0.5-0.224-0.5-0.5c0-7.341-5.973-13.313-13.313-13.313   c-0.276,0-0.5-0.224-0.5-0.5V13.5c0-0.276,0.224-0.5,0.5-0.5s0.5,0.224,0.5,0.5v2.699c7.496,0.258,13.547,6.308,13.805,13.805   h4.521C20.064,19.849,11.721,11.67,1.504,11.67c-0.276,0-0.5-0.224-0.5-0.5s0.224-0.5,0.5-0.5c10.936,0,19.833,8.897,19.833,19.833   C21.337,30.78,21.113,31.003,20.837,31.003z" fill="#263238"/><path d="M30.504,31.003h-5.52c-0.276,0-0.5-0.224-0.5-0.5c0-12.671-10.309-22.98-22.98-22.98   c-0.276,0-0.5-0.224-0.5-0.5V3.5c0-0.276,0.224-0.5,0.5-0.5s0.5,0.224,0.5,0.5v3.029c12.827,0.264,23.212,10.648,23.476,23.475H30   c-0.268-15.485-12.948-28-28.496-28c-0.276,0-0.5-0.224-0.5-0.5s0.224-0.5,0.5-0.5c16.267,0,29.5,13.233,29.5,29.5   C31.004,30.78,30.78,31.003,30.504,31.003z" fill="#263238"/><path d="M5.65,31.003c-2.563,0-4.646-2.084-4.646-4.647c0-1.167,0.437-2.282,1.229-3.141   C2.421,23.013,2.737,23,2.939,23.188c0.203,0.187,0.216,0.503,0.028,0.707c-0.621,0.673-0.964,1.548-0.964,2.462   c0,2.011,1.636,3.647,3.646,3.647c2.006,0,3.638-1.636,3.638-3.647c0-2.005-1.632-3.637-3.638-3.637   c-0.261,0-0.521,0.028-0.773,0.082c-0.263,0.061-0.536-0.113-0.595-0.383c-0.058-0.27,0.114-0.536,0.384-0.594   c0.322-0.069,0.653-0.104,0.984-0.104c2.558,0,4.638,2.08,4.638,4.637C10.288,28.919,8.208,31.003,5.65,31.003z" fill="#263238"/></g></svg>