<?xml version="1.0" ?><!DOCTYPE svg  PUBLIC '-//W3C//DTD SVG 1.1//EN'  'http://www.w3.org/Graphics/SVG/1.1/DTD/svg11.dtd'><svg enable-background="new 0 0 32 32" height="32px" version="1.1" viewBox="0 0 32 32" width="32px" xml:space="preserve" xmlns="http://www.w3.org/2000/svg" xmlns:xlink="http://www.w3.org/1999/xlink"><g id="Spotify"><g id="telegram_2_"><path d="M15.737,31C7.474,31,1,24.411,1,16c0-3.629,1.238-7.111,3.485-9.804c0.177-0.212,0.492-0.241,0.704-0.063    C5.401,6.31,5.43,6.625,5.253,6.837C3.155,9.35,2,12.604,2,16c0,7.851,6.034,14,13.737,14C23.602,30,30,23.72,30,16    S23.602,2,15.737,2c-2.441,0-4.812,0.62-6.857,1.791C8.642,3.928,8.335,3.846,8.198,3.606C8.06,3.366,8.143,3.061,8.383,2.924    C10.579,1.665,13.122,1,15.737,1C24.153,1,31,7.729,31,16S24.153,31,15.737,31z" fill="#263238"/><g><g><g><g><g><g><path d="M7.543,4.552c0,0.275-0.225,0.5-0.5,0.5l0,0c-0.275,0-0.5-0.225-0.5-0.5l0,0          c0-0.275,0.225-0.5,0.5-0.5l0,0C7.318,4.052,7.543,4.276,7.543,4.552L7.543,4.552z" fill="#263238"/></g></g></g></g></g></g></g><g><path d="M26.44,14.042c0.363-0.652,0.145-1.522-0.507-1.885c-5.365-3.19-13.848-3.48-18.995-1.958    c-0.652,0.217-1.087,0.942-0.87,1.667c0.218,0.652,0.942,1.087,1.667,0.87c4.423-1.377,12.18-1.087,16.82,1.667    C25.208,14.768,26.078,14.55,26.44,14.042z" fill="#263238"/><path d="M8.243,19.625c-0.435,0.145-0.798,0.58-0.653,1.087c0.145,0.435,0.58,0.797,1.088,0.653    c5.075-1.16,9.352-0.725,12.76,1.377c0.435,0.29,0.942,0.145,1.232-0.29c0.218-0.435,0.145-1.015-0.362-1.232    C18.538,18.9,13.752,18.393,8.243,19.625z" fill="#263238"/><path d="M24.41,18.465c0.362-0.507,0.145-1.232-0.29-1.45c-4.495-2.755-11.02-3.553-16.313-1.958    c-0.58,0.145-0.87,0.797-0.725,1.377s0.797,0.87,1.377,0.725c4.567-1.45,10.513-0.725,14.428,1.667    C23.395,19.19,24.047,18.973,24.41,18.465z" fill="#263238"/></g></g></svg>